<?xml version="1.0" encoding="utf-8"?>
<!-- Generator: Adobe Illustrator 21.1.0, SVG Export Plug-In . SVG Version: 6.00 Build 0)  -->
<svg version="1.1" id="Layer_1" xmlns="http://www.w3.org/2000/svg" xmlns:xlink="http://www.w3.org/1999/xlink" x="0px" y="0px"
	 viewBox="0 0 211 47" style="enable-background:new 0 0 211 47;" xml:space="preserve">
<style type="text/css">
	.st0{fill:#FFFFFF;}
</style>
<g>
	<path class="st0" d="M8.3,47l3.8-5.7c-3.2-2.2-5.2-5.9-5.2-10c0-6.7,5.5-12.2,12.2-12.2c2.3,0,4.5,0.7,6.4,1.8l3.8-5.7
		c-2.9-1.9-6.4-2.9-10.2-2.9c-10.5,0-19,8.5-19,19C0,37.8,3.3,43.6,8.3,47z"/>
	<path class="st0" d="M33.2,0l-3.8,5.7c3.2,2.2,5.2,5.9,5.2,10c0,6.7-5.5,12.2-12.2,12.2c-2.3,0-4.5-0.7-6.4-1.8l-3.8,5.7
		c2.9,1.9,6.4,2.9,10.2,2.9c10.5,0,19-8.5,19-19C41.5,9.2,38.2,3.4,33.2,0z"/>
</g>
<g>
	<path class="st0" d="M70.5,25.7v2.3c0,2.8-1.4,4.4-4.1,4.4s-4.1-1.6-4.1-4.4v-9.2c0-2.8,1.4-4.4,4.1-4.4s4.1,1.6,4.1,4.4v1.7h-2.6
		v-1.9c0-1.3-0.6-1.7-1.4-1.7c-0.9,0-1.4,0.5-1.4,1.7v9.5c0,1.3,0.6,1.7,1.4,1.7c0.9,0,1.4-0.5,1.4-1.7v-2.5H70.5z"/>
	<path class="st0" d="M82.2,32.3c-0.2-0.5-0.3-0.7-0.3-2.2v-2.8c0-1.6-0.6-2.2-1.8-2.2h-1v7.2h-2.8V14.7h4.2c2.9,0,4.1,1.3,4.1,4.1
		v1.4c0,1.8-0.6,3-1.8,3.6c1.4,0.6,1.8,1.9,1.8,3.8v2.7c0,0.9,0,1.5,0.3,2.1H82.2z M79.2,17.2v5.4h1.1c1,0,1.7-0.5,1.7-1.9V19
		c0-1.3-0.4-1.8-1.4-1.8H79.2z"/>
	<path class="st0" d="M93.2,26.5l-3.5-11.8h2.9l2.1,8l2.1-8h2.6L96,26.5v5.8h-2.8V26.5z"/>
	<path class="st0" d="M113.1,19v2.3c0,2.8-1.4,4.4-4.1,4.4h-1.3v6.6h-2.8V14.7h4.1C111.7,14.7,113.1,16.2,113.1,19z M107.7,17.2v6
		h1.3c0.9,0,1.4-0.4,1.4-1.7v-2.6c0-1.3-0.5-1.7-1.4-1.7H107.7z"/>
	<path class="st0" d="M118,14.7h8.6v2.5h-2.9v15.1h-2.8V17.2H118V14.7z"/>
	<path class="st0" d="M131.8,18.9c0-2.8,1.5-4.4,4.2-4.4c2.7,0,4.2,1.6,4.2,4.4v9.2c0,2.8-1.5,4.4-4.2,4.4c-2.7,0-4.2-1.6-4.2-4.4
		V18.9z M134.6,28.3c0,1.3,0.6,1.7,1.4,1.7c0.9,0,1.4-0.5,1.4-1.7v-9.5c0-1.3-0.6-1.7-1.4-1.7c-0.9,0-1.4,0.5-1.4,1.7V28.3z"/>
	<path class="st0" d="M154.4,25.7v2.3c0,2.8-1.4,4.4-4.1,4.4c-2.7,0-4.1-1.6-4.1-4.4v-9.2c0-2.8,1.4-4.4,4.1-4.4
		c2.7,0,4.1,1.6,4.1,4.4v1.7h-2.6v-1.9c0-1.3-0.6-1.7-1.4-1.7c-0.9,0-1.4,0.5-1.4,1.7v9.5c0,1.3,0.6,1.7,1.4,1.7
		c0.9,0,1.4-0.5,1.4-1.7v-2.5H154.4z"/>
	<path class="st0" d="M163,14.7v13.6c0,1.3,0.6,1.7,1.4,1.7c0.9,0,1.4-0.5,1.4-1.7V14.7h2.6v13.4c0,2.8-1.4,4.4-4.1,4.4
		c-2.7,0-4.1-1.6-4.1-4.4V14.7H163z"/>
	<path class="st0" d="M180.5,32.3c-0.2-0.5-0.3-0.7-0.3-2.2v-2.8c0-1.6-0.6-2.2-1.8-2.2h-1v7.2h-2.8V14.7h4.2c2.9,0,4.1,1.3,4.1,4.1
		v1.4c0,1.8-0.6,3-1.8,3.6c1.4,0.6,1.8,1.9,1.8,3.8v2.7c0,0.9,0,1.5,0.3,2.1H180.5z M177.4,17.2v5.4h1.1c1,0,1.7-0.5,1.7-1.9V19
		c0-1.3-0.4-1.8-1.4-1.8H177.4z"/>
	<path class="st0" d="M193.2,29.1l2.1-14.4h2.5l-2.7,17.6H191l-2.7-17.6h2.8L193.2,29.1z"/>
	<path class="st0" d="M206.2,22.1h3.8v2.5h-3.8v5.2h4.8v2.5h-7.6V14.7h7.6v2.5h-4.8V22.1z"/>
</g>
</svg>
